<svg width="588" height="218" viewBox="0 0 588 218" fill="none" xmlns="http://www.w3.org/2000/svg">
<path d="M301.695 245.893C280.254 193.979 262.063 132.904 289.734 73.7133C289.734 73.7133 291.181 70.3639 294.014 65.1369L294.304 64.5745C277.656 54.7831 239.838 34.602 199.351 26.8052C178.134 20.6663 155.822 18.9364 134.739 21.7955C113.656 24.6547 94.5741 31.9983 79.48 43.0616C64.3858 54.1249 53.8319 68.5031 48.9176 84.6985C44.0033 100.894 44.9084 118.314 51.5384 135.145C53.2327 138.562 55.0253 141.914 56.8355 145.183C63.6956 157.327 73.1002 168.67 84.6242 178.697C101.017 193.254 120.772 205.386 140.87 217.097C174.598 236.772 254.968 279.5 310.677 315.397C319.571 321.124 365.101 352.828 398.511 380.203C363.573 339.784 316.427 281.571 301.695 245.893Z" fill="#76BD21" fill-opacity="0.8"/>
<path d="M566.2 65.568C565.351 62.1379 564.386 58.726 563.344 55.1469C556.578 38.3172 544.323 22.7192 527.859 9.98087C511.395 -2.75744 491.326 -12.1689 469.746 -17.271C448.166 -22.373 425.867 -22.9786 405.177 -19.0245C384.486 -15.0705 366.163 -6.70171 352.12 5.20807C324.887 22.8319 307.387 48.9226 299.041 63.7111L299.717 64.1134C303.34 66.3064 305.342 67.6372 305.342 67.6372C373.973 111.088 403.757 170.396 423.858 222.453C439.822 263.88 440.263 345.806 439.223 388.512C446.822 352.886 466.738 301.446 470.706 292.76C492.748 244.184 531.342 182.032 546.228 154.437C555.123 138.001 563.37 121.298 566.884 103.499C569.503 91.1686 569.271 78.3312 566.2 65.568Z" fill="#76BD21" fill-opacity="0.4"/>
<path d="M420.782 394.774C424.802 398.496 428.151 401.794 430.818 404.731C432.124 372.216 434.528 270.685 416.477 223.619C395.738 169.886 367.533 114.473 301.2 72.332L300.036 71.5884C298.565 74.5261 297.801 76.258 297.797 76.2786C270.971 133.69 287.664 191.083 309.738 244.627C326.384 284.955 386.31 355.941 420.782 394.774Z" fill="#76BD21" fill-opacity="0.3"/>
</svg>
