<svg width="304" height="213" viewBox="0 0 304 213" fill="none" xmlns="http://www.w3.org/2000/svg">
<path d="M63.8075 108.181L75.5529 109.142C75.7834 109.161 76.0153 109.131 76.234 109.056C76.4526 108.981 76.6533 108.861 76.8233 108.704C76.9933 108.547 77.129 108.357 77.2218 108.145C77.3146 107.933 77.3624 107.704 77.3622 107.473V105.644C77.3646 105.364 77.2967 105.088 77.1648 104.842C77.0328 104.595 76.841 104.385 76.607 104.232L72.1507 101.304C71.8772 101.126 71.5575 101.031 71.2308 101.031H63.937C63.7171 101.031 63.4993 101.074 63.2961 101.158C63.0928 101.242 62.9081 101.365 62.7525 101.521C62.5969 101.676 62.4735 101.861 62.3893 102.064C62.3051 102.267 62.2617 102.485 62.2617 102.705V106.499C62.2593 106.923 62.4173 107.332 62.704 107.644C62.9908 107.956 63.385 108.148 63.8075 108.181Z" fill="#1D594C"/>
<path d="M62.2715 102.713V104.125C62.2713 104.546 62.4292 104.951 62.7139 105.26C62.9985 105.569 63.3891 105.76 63.8079 105.794L75.5533 106.757C75.8796 106.866 76.2351 106.848 76.5487 106.706C76.8623 106.564 77.1108 106.309 77.2443 105.992C77.3779 105.675 77.3868 105.319 77.2691 104.995C77.1514 104.672 76.9159 104.405 76.6097 104.248L72.1393 101.32C71.8658 101.141 71.546 101.046 71.2193 101.047H63.9255C63.4864 101.052 63.0667 101.229 62.7573 101.541C62.4478 101.853 62.2733 102.274 62.2715 102.713Z" fill="#3A7D64"/>
<path d="M145.438 82.3853C145.61 80.293 158.77 79.6717 174.83 80.9991C190.89 82.3265 204.005 84.866 203.598 87.1913C203.163 89.6743 201.245 92.2303 189.592 91.3854C173.519 90.218 145.264 84.4753 145.438 82.3853Z" fill="#1D594C"/>
<path d="M59.4478 129.48C54.4033 129.48 50.3164 136.306 50.3164 144.722C50.3164 153.139 54.4033 159.966 59.4478 159.966H69.4826V129.48H59.4478Z" fill="#354040"/>
<path d="M192.651 129.48C187.609 129.48 183.52 136.306 183.52 144.722C183.52 153.139 187.609 159.966 192.651 159.966H202.686V129.48H192.651Z" fill="#354040"/>
<path d="M123.456 129.48C118.411 129.48 114.324 136.306 114.324 144.722C114.324 153.139 118.411 159.966 123.456 159.966H133.488V129.48H123.456Z" fill="#354040"/>
<path d="M69.4829 159.968C74.526 159.968 78.6143 153.144 78.6143 144.726C78.6143 136.308 74.526 129.484 69.4829 129.484C64.4398 129.484 60.3516 136.308 60.3516 144.726C60.3516 153.144 64.4398 159.968 69.4829 159.968Z" fill="#231F20"/>
<path d="M130.522 80C117.026 80.5766 105.403 81.052 97.8621 85.3426C90.9707 89.2637 75.5666 102.199 69.8187 107.895C64.7695 108.975 58.4309 111.392 50.9371 119.54C45.6338 125.309 46.6479 136.34 46.6479 141.513C46.6479 148.809 51.9677 151.353 58.3133 151.353H209.801C217.2 151.353 219.466 146.594 219.77 138.788C220.259 126.222 219.219 119.959 217.375 108.718C216.9 106.772 216.023 104.947 214.801 103.362C210.528 97.9695 205.377 92.914 202.33 90.1815C197.208 85.5944 191.882 83.182 184.774 82.2029" fill="#3A7D64"/>
<path d="M102.216 84.4883C92.2425 89.0848 76.942 102.964 73.041 107.716H131.102C136.168 100.636 145.76 90.0451 152.056 84.4883H102.216Z" fill="#354040"/>
<path d="M147.941 92.6653C142.53 99.0458 137.678 106.537 135.652 110.727C135.652 110.727 181.1 107.493 194.198 106.097C200.765 105.391 202.106 102.014 201.021 98.648C199.252 93.143 195.393 86.9908 191.245 85.8234C186.069 84.3619 171.717 84.0465 164.329 84.6231C159.35 85.0114 152.694 87.0779 147.941 92.6653Z" fill="#354040"/>
<path d="M109.382 151.358H50.8641C49.3018 151.358 48.3418 150.339 47.716 148.905C46.749 146.695 44.7585 141.861 44.8055 139.576C44.8408 137.773 45.6502 131.71 46.7254 131.618C47.6054 131.543 57.2191 135.297 62.4894 135.297H94.8363C99.596 135.297 114.174 130.246 115.221 132.065C115.948 133.329 112.092 136.537 112.148 139.571C112.193 142.073 112.471 147.858 112.471 147.858C112.527 148.296 112.488 148.742 112.359 149.164C112.229 149.586 112.01 149.976 111.718 150.307C111.426 150.639 111.066 150.904 110.663 151.085C110.26 151.266 109.823 151.359 109.382 151.358Z" fill="#354040"/>
<path d="M102.963 148.332H51.3398L54.008 141.911C54.2476 141.335 54.6523 140.843 55.171 140.497C55.6898 140.15 56.2994 139.965 56.9231 139.965H94.9921C95.4763 139.965 95.9539 140.077 96.388 140.292C96.8221 140.507 97.201 140.818 97.4955 141.203L102.963 148.332Z" fill="#231F20"/>
<path d="M89.1102 123.214H70.8404L58.0833 121.086L56.5469 127.045L68.4264 132.578H86.6961L101.427 127.045L102.961 121.086L89.1102 123.214Z" fill="#D4D4D4"/>
<path d="M58.0851 121.088L56.5463 127.05L48.5467 123.324C48.0573 120.533 49.5137 118.537 50.6219 117.261C51.5866 116.16 56.3887 113.041 59.8121 111.949C59.9156 112.06 53.7982 115.331 54.9417 116.948L58.0851 121.088Z" fill="#D4D4D4"/>
<path d="M144.322 151.358C145.02 148.885 145.368 146.326 145.357 143.756C145.357 134.076 140.651 126.227 134.856 126.227C129.061 126.227 124.356 134.076 124.356 143.756C124.346 146.326 124.697 148.885 125.398 151.358H144.322Z" fill="#354040"/>
<path d="M133.487 159.968C138.53 159.968 142.618 153.144 142.618 144.726C142.618 136.308 138.53 129.484 133.487 129.484C128.444 129.484 124.355 136.308 124.355 144.726C124.355 153.144 128.444 159.968 133.487 159.968Z" fill="#231F20"/>
<path d="M133.487 154.633C136.765 154.633 139.423 150.198 139.423 144.727C139.423 139.255 136.765 134.82 133.487 134.82C130.209 134.82 127.551 139.255 127.551 144.727C127.551 150.198 130.209 154.633 133.487 154.633Z" fill="white"/>
<path d="M210.458 151.358C211.293 151.358 213.609 151.054 213.722 150.612C214.282 148.37 214.562 146.067 214.554 143.756C214.554 134.076 209.849 126.227 204.054 126.227C198.259 126.227 193.553 134.076 193.553 143.756C193.542 146.326 193.89 148.885 194.588 151.358H210.458Z" fill="#354040"/>
<path d="M202.684 159.968C207.727 159.968 211.815 153.144 211.815 144.726C211.815 136.308 207.727 129.484 202.684 129.484C197.641 129.484 193.553 136.308 193.553 144.726C193.553 153.144 197.641 159.968 202.684 159.968Z" fill="#231F20"/>
<path d="M202.684 154.633C205.963 154.633 208.62 150.198 208.62 144.727C208.62 139.255 205.963 134.82 202.684 134.82C199.406 134.82 196.748 139.255 196.748 144.727C196.748 150.198 199.406 154.633 202.684 154.633Z" fill="white"/>
<path d="M119.623 120.208L101.426 127.033L102.962 121.076L109.315 116.101C110.949 114.775 112.9 113.897 114.976 113.554L126.241 111.937C127.203 111.799 127.571 112.924 126.858 113.82L124.924 116.242C123.543 118.014 121.712 119.384 119.623 120.208Z" fill="#D4D4D4"/>
<path d="M115.961 121.585L101.428 127.043L102.654 122.284L107.722 118.311C109.026 117.252 110.584 116.552 112.241 116.28L121.241 114.986C122.008 114.877 122.302 115.774 121.73 116.489L120.187 118.424C119.085 119.835 117.626 120.926 115.961 121.585Z" fill="white"/>
<path d="M57.7644 122.284L56.5456 127.043L50.273 124.219C48.7389 120.366 51.9647 116.356 54.7645 114.977C55.1269 115.318 53.5246 115.97 54.5904 117.7L57.7644 122.284Z" fill="white"/>
<path d="M110.145 144.203H99.793L102.967 148.331H109.967C110.227 148.331 110.484 148.275 110.72 148.168C110.957 148.061 111.169 147.905 111.34 147.709C111.512 147.514 111.641 147.285 111.717 147.036C111.793 146.787 111.816 146.525 111.783 146.267L111.691 145.561C111.643 145.185 111.46 144.84 111.175 144.59C110.89 144.34 110.524 144.202 110.145 144.203Z" fill="white"/>
<path d="M53.0685 144.203L51.3415 148.329H47.4711C47.0005 147.22 46.3817 145.714 45.8594 144.203H53.0685Z" fill="white"/>
<path d="M172.076 112.147L166.016 112.539C165.515 112.571 165.136 113.004 165.168 113.504L165.203 114.047C165.235 114.547 165.667 114.927 166.168 114.895L172.228 114.503C172.729 114.47 173.108 114.038 173.076 113.538L173.041 112.995C173.008 112.494 172.576 112.115 172.076 112.147Z" fill="#231F20"/>
<path d="M199.162 109.865L193.119 110.461C192.62 110.511 192.255 110.956 192.304 111.455L192.358 111.996C192.407 112.495 192.851 112.86 193.351 112.811L199.394 112.214C199.893 112.164 200.258 111.72 200.208 111.22L200.155 110.679C200.106 110.18 199.661 109.815 199.162 109.865Z" fill="#231F20"/>
<path d="M218.761 117.555H211.533C211.412 117.555 211.293 117.527 211.185 117.472C211.077 117.418 210.984 117.339 210.912 117.242C210.84 117.145 210.793 117.032 210.772 116.913C210.752 116.794 210.761 116.672 210.796 116.557L212.761 110.237C212.929 109.703 213.249 109.229 213.683 108.875C214.118 108.521 214.646 108.302 215.203 108.246L217.184 108.051C217.253 108.286 217.314 108.498 217.372 108.719C217.909 111.993 218.38 114.846 218.761 117.555Z" fill="#D4D4D4"/>
<path d="M202.682 136.254C202.043 136.261 201.42 136.451 200.887 136.802C202.802 138.014 204.164 141.105 204.164 144.724C204.164 148.344 202.802 151.437 200.887 152.649C201.42 153 202.043 153.19 202.682 153.197C205.484 153.197 207.757 149.403 207.757 144.724C207.757 140.046 205.484 136.254 202.682 136.254Z" fill="#76766B"/>
<path d="M133.489 136.254C132.85 136.261 132.226 136.451 131.691 136.802C133.607 138.014 134.969 141.105 134.969 144.724C134.969 148.344 133.607 151.437 131.691 152.649C132.226 153 132.85 153.19 133.489 153.197C136.291 153.197 138.564 149.403 138.564 144.724C138.564 140.046 136.291 136.254 133.489 136.254Z" fill="#76766B"/>
<path d="M185.612 144.529H147.047L146.715 109.878H147.376L147.701 143.873H185.617C186.968 143.882 188.279 143.41 189.314 142.541C190.348 141.671 191.04 140.461 191.263 139.128C192.122 134.023 194.395 127.332 200.345 124.453C201.617 123.825 202.668 122.827 203.362 121.59C204.056 120.353 204.359 118.935 204.232 117.522C203.622 111.125 202.239 104.825 200.115 98.7595L200.741 98.543C202.883 104.659 204.277 111.012 204.891 117.463C205.03 119.01 204.697 120.562 203.938 121.916C203.178 123.269 202.027 124.362 200.635 125.049C194.936 127.805 192.748 134.287 191.918 139.239C191.665 140.726 190.892 142.074 189.737 143.044C188.582 144.013 187.12 144.54 185.612 144.529Z" fill="#354040"/>
<path d="M174.254 144.243L173.598 144.161C175.395 129.611 176.421 119.898 175.423 107.742L176.082 107.688C177.08 119.907 176.059 129.649 174.254 144.243Z" fill="#354040"/>
<path d="M83.437 130.726C84.9981 129.164 84.9981 126.633 83.437 125.071C81.8759 123.509 79.3448 123.509 77.7837 125.071C76.2226 126.633 76.2226 129.164 77.7837 130.726C79.3448 132.288 81.8759 132.288 83.437 130.726Z" fill="#76766B"/>
<path d="M78.6149 131.861C77.8308 131.861 77.0643 131.629 76.4124 131.193C75.7604 130.757 75.2522 130.138 74.9522 129.413C74.6521 128.688 74.5736 127.891 74.7266 127.122C74.8795 126.352 75.2571 125.646 75.8116 125.091C76.366 124.537 77.0724 124.159 77.8415 124.006C78.6105 123.853 79.4077 123.931 80.1321 124.232C80.8565 124.532 81.4757 125.04 81.9113 125.692C82.3469 126.344 82.5795 127.111 82.5795 127.895C82.5782 128.947 82.1601 129.955 81.4169 130.698C80.6737 131.442 79.666 131.86 78.6149 131.861ZM78.6149 124.591C77.9634 124.591 77.3266 124.784 76.7849 125.146C76.2432 125.508 75.821 126.023 75.5717 126.625C75.3224 127.227 75.2571 127.89 75.3842 128.529C75.5113 129.168 75.8251 129.755 76.2857 130.216C76.7464 130.677 77.3333 130.991 77.9723 131.118C78.6113 131.245 79.2736 131.18 79.8755 130.93C80.4774 130.681 80.9918 130.258 81.3537 129.717C81.7157 129.175 81.9089 128.538 81.9089 127.886C81.9052 127.013 81.557 126.177 80.94 125.56C80.3231 124.943 79.4874 124.595 78.6149 124.591Z" fill="#354040"/>
<path d="M155.491 108.181L143.743 109.142C143.512 109.161 143.281 109.131 143.062 109.056C142.843 108.981 142.643 108.861 142.473 108.704C142.303 108.547 142.167 108.357 142.074 108.145C141.981 107.933 141.934 107.704 141.934 107.473V105.644C141.931 105.364 141.999 105.088 142.131 104.842C142.263 104.595 142.455 104.385 142.689 104.232L147.148 101.304C147.42 101.126 147.739 101.031 148.065 101.031H155.359C155.803 101.031 156.228 101.208 156.542 101.521C156.856 101.835 157.032 102.261 157.032 102.705V106.499C157.035 106.922 156.878 107.331 156.592 107.643C156.306 107.955 155.913 108.148 155.491 108.181Z" fill="#1D594C"/>
<path d="M157.027 102.716V104.128C157.027 104.548 156.869 104.954 156.583 105.263C156.298 105.572 155.907 105.763 155.488 105.796L143.743 106.757C143.418 106.86 143.066 106.839 142.756 106.696C142.447 106.553 142.202 106.3 142.07 105.986C141.937 105.671 141.928 105.319 142.042 104.998C142.157 104.676 142.387 104.41 142.688 104.25L147.145 101.322C147.418 101.143 147.738 101.048 148.065 101.047H155.359C155.8 101.049 156.224 101.225 156.536 101.538C156.848 101.85 157.025 102.274 157.027 102.716Z" fill="#3A7D64"/>
<path d="M207.512 72.7763H192.82L187.891 83.3047H203.444L207.512 72.7763Z" fill="#634A16"/>
<path d="M246.894 182.242C247.978 181.871 249.033 177.329 249.375 175.824L242.879 168.793L250.809 163.609L256.42 173.357C257.847 175.232 259.872 178.698 258.973 179.147C249.29 183.925 254.994 186.578 245.746 187.455C244.819 187.562 240.583 184.346 246.894 182.242Z" fill="#231F20"/>
<path d="M205.222 181.523C206.27 181.78 210.876 180.354 212.795 179.734L215.155 168.367L223.926 171.063L219.683 182.358C219.391 184.675 218.642 189.324 217.358 188.982L202.255 184.982C201.357 184.747 201.685 180.668 205.222 181.523Z" fill="#231F20"/>
<path d="M216.26 112.605C216.26 112.605 221.38 140.415 227.263 148.872C229.944 152.715 238.637 148.401 237.888 145.385C234.323 130.981 232.183 111.043 232.183 111.043L216.26 112.605Z" fill="#0C4E93"/>
<path d="M237.936 145.763C233.237 141.735 225.101 145.307 228.795 150.755C232.232 155.861 236.596 162.756 244.411 170.443C246.55 172.582 252.875 167.348 251.727 164.738C249.331 159.298 241.195 148.552 237.936 145.763Z" fill="#0C4E93"/>
<path d="M241.872 114.631C241.123 118.959 225.193 117.861 225.193 117.861L216.258 112.606L214.989 102.273L242.15 102.651C242.15 102.651 242.613 110.345 241.872 114.631Z" fill="#0C4E93"/>
<path d="M226.194 112.604C226.194 112.604 221.074 139.836 218.892 149.534C217.865 154.105 229.181 155.881 230.201 152.943C235.071 138.924 240.184 124.498 241.874 114.629C242.972 108.247 226.194 112.604 226.194 112.604Z" fill="#0C4E93"/>
<path d="M230.201 152.946C231.335 146.863 222.258 140.631 219.869 146.785C217.637 152.489 215.997 161.545 213.886 171.079C213.665 172.099 222.372 176.142 223.256 173.432C225.003 168.098 228.953 159.67 230.201 152.946Z" fill="#0C4E93"/>
<path d="M210.656 61.7969L206.384 83.7097L213.743 85.9416L219.762 63.9076L210.656 61.7969Z" fill="#F9AF97"/>
<path d="M218.741 54.1768C217.13 53.8631 211.518 54.3408 210.006 59.3252C208.58 63.9459 206.384 76.439 206.384 76.439C206.077 78.7779 216.409 78.4784 216.409 78.4784L219.661 65.7286C220.331 62.2845 221.629 54.7401 218.741 54.1768Z" fill="#5C2972"/>
<path d="M213.073 58.9445C213.359 53.6179 219.933 51.7568 229.595 51.9422C239.258 52.1276 245.689 55.258 245.632 60.0926C245.583 63.5724 244.919 73.1205 244.149 81.4848C243.714 86.1483 245.247 102.963 243.921 103.882C233.289 111.249 213.458 106.328 213.458 104.596C213.458 100.738 212.788 64.0573 213.073 58.9445Z" fill="#5C2972"/>
<path d="M223.004 98.4987H195.173L193.012 72.6641H223.496L223.004 98.4987Z" fill="#C4932C"/>
<path d="M223.004 98.4987H235.511L237.672 72.6641H223.496L223.004 98.4987Z" fill="#956F1F"/>
<path d="M223.357 72.7763H238.049L242.979 83.3047H227.425L223.357 72.7763Z" fill="#D6AC54"/>
<path d="M232.695 53.2782L224.031 53.5634L225.215 45.8907L232.353 45.1562L232.695 53.2782Z" fill="#F8A490"/>
<path d="M227.377 49.1779C226.5 49.4084 225.586 49.4618 224.688 49.3348L225.216 45.8906L231.52 45.9477C231.52 45.9477 230.771 47.9728 227.377 49.1779Z" fill="#DF7A73"/>
<path d="M221.223 33.5977L221.002 41.7909C221.123 45.5844 223.141 48.6934 226.749 48.5722C230.357 48.451 234.286 45.1566 234.165 41.3844L233.916 33.9043L221.223 33.5977Z" fill="#F9AE9A"/>
<path d="M232.312 38.5293C232.069 37.2244 231.499 36.2688 230.173 35.9694C229.012 35.7473 227.813 35.8284 226.693 36.2047C225.031 36.6896 223.306 35.1137 221.537 35.5415C219.141 36.1191 218.136 34.1154 219.184 33.1884C221.059 31.5412 220.247 29.4376 221.409 28.5249C222.949 27.3126 225.381 27.2057 227.27 27.1914C229.352 27.1914 232.975 27.4481 234.822 28.5676C236.519 29.6087 235.956 32.2899 236.305 34.1795C236.69 36.5683 235.485 38.5293 234.665 40.6685C234.266 41.7096 233.759 42.0947 233.139 41.0251C232.725 40.2456 232.445 39.4018 232.312 38.5293Z" fill="#6F353B"/>
<path d="M236.262 38.6448C236.262 38.6448 238.401 34.7585 239.157 34.1453C239.913 33.5321 240.291 29.8669 237.232 26.3015C234.173 22.7361 227.32 24.205 225.872 24.8753C224.425 25.5456 220.774 28.7759 220.774 28.7759C220.774 28.7759 234.551 32.2057 236.262 38.6448Z" fill="#0C4E93"/>
<path d="M234.308 40.9067C234.308 40.9067 232.882 34.6531 228.176 32.6493C223.469 30.6456 220.104 33.0701 219.904 31.5512C219.704 30.0324 219.248 28.05 221.801 27.9858C224.354 27.9217 234.458 27.2728 237.046 36.5998C237.881 39.559 234.764 42.2687 234.308 40.9067Z" fill="#417AAB"/>
<path d="M232.289 40.199C231.747 41.3257 232.032 42.5807 232.916 43.0085C233.8 43.4364 234.963 42.873 235.505 41.7535C236.047 40.634 235.769 39.3719 234.877 38.944C233.986 38.5162 232.831 39.0795 232.289 40.199Z" fill="#F9AE9A"/>
<path d="M248.504 93.0368C249.091 93.7776 249.884 94.3278 250.784 94.6177C251.683 94.9077 252.649 94.9244 253.557 94.6657C254.466 94.407 255.278 93.8846 255.89 93.1645C256.502 92.4445 256.887 91.559 256.996 90.6203C257.104 89.6816 256.932 88.7317 256.501 87.8907C256.07 87.0498 255.399 86.3556 254.573 85.896C253.748 85.4364 252.804 85.2321 251.862 85.3087C250.92 85.3854 250.022 85.7397 249.282 86.3267C248.291 87.1148 247.652 88.2635 247.507 89.5212C247.361 90.7789 247.72 92.0431 248.504 93.0368Z" fill="#F9AF97"/>
<path d="M253.005 70.6211C253.005 70.6211 256.763 87.6564 256.777 88.612C255.701 89.2181 248.099 90.3162 248.099 90.3162L243.528 72.6106L253.005 70.6211Z" fill="#F9AF97"/>
<path d="M251.771 86.0195L229.181 90.1268L229.445 94.7333L253.24 94.7476L251.771 86.0195Z" fill="#F9AF97"/>
<path d="M240.674 54.4449C242.229 53.9386 246.586 55.4218 250.037 60.6344C252.704 64.6632 256.205 78.2259 256.205 78.2259C251.841 81.7913 243.662 81.9909 243.662 81.9909L239.54 66.339C238.464 63.016 237.872 55.3505 240.674 54.4449Z" fill="#5C2972"/>
<path d="M231.32 90.0711L230.236 94.592C230.236 94.592 225.245 95.2123 222.977 95.305C221.191 95.2644 219.471 94.6239 218.093 93.4867C218 93.2157 215.54 87.3971 219.647 88.7162C220.696 89.1446 221.805 89.4045 222.935 89.4864C224.268 89.4864 226.2 89.7645 225.701 89.1298C225.288 88.6093 223.327 87.9818 223.07 87.8891C221.352 87.2687 222.129 85.6999 222.97 85.978C225.896 87.0296 228.697 88.4024 231.32 90.0711Z" fill="#F9AF97"/>
<path d="M191.987 77.1938C192.108 76.0243 196.344 77.1225 196.344 81.0087C196.344 84.895 192.244 85.0162 192.129 83.5473C191.891 81.438 191.843 79.3116 191.987 77.1938Z" fill="#F9AF97"/>
<path d="M226.186 57.4332C220.16 57.5687 221.366 53.932 222.193 52.3204C224.646 51.9946 227.121 51.8682 229.594 51.9425C231.265 51.9711 232.932 52.1021 234.586 52.3347C234.03 53.8963 232.14 57.2977 226.186 57.4332Z" fill="#F8A490"/>
<path d="M224.525 42.2477H224.476C224.326 42.1479 224.383 41.9981 224.476 41.6986C224.672 41.1355 224.836 40.5617 224.968 39.9801C224.978 39.9389 225.004 39.9033 225.039 39.8807C225.075 39.8581 225.119 39.8503 225.16 39.8589C225.203 39.8675 225.24 39.8926 225.264 39.9287C225.288 39.9647 225.297 40.0089 225.288 40.0514C225.152 40.645 224.983 41.2307 224.782 41.8056C224.754 41.8706 224.731 41.9373 224.711 42.0052L225.153 42.1407C225.298 42.1966 225.445 42.2442 225.595 42.2833C225.637 42.2966 225.672 42.3254 225.694 42.3639C225.715 42.4024 225.72 42.4476 225.709 42.4901C225.704 42.5105 225.694 42.5295 225.681 42.546C225.667 42.5626 225.651 42.5762 225.632 42.5862C225.614 42.5962 225.593 42.6023 225.572 42.6042C225.551 42.6061 225.53 42.6036 225.51 42.5971C225.31 42.5472 225.182 42.4973 225.046 42.4545C224.902 42.3986 224.754 42.351 224.604 42.3119L224.511 42.2762" fill="#DF7A73"/>
<path d="M229.438 37.8181C229.167 37.7397 228.918 37.647 228.654 37.59C228.398 37.5334 228.138 37.4976 227.877 37.483C227.34 37.4482 226.802 37.4769 226.272 37.5686C226.506 37.4037 226.77 37.2873 227.049 37.2263C227.327 37.1595 227.613 37.1355 227.898 37.155C228.186 37.1714 228.468 37.239 228.732 37.3546C228.997 37.4623 229.239 37.6196 229.445 37.8181" fill="#6F353B"/>
<path d="M224.669 37.3552C224.398 37.2767 224.148 37.184 223.884 37.1341C223.629 37.0729 223.369 37.0324 223.107 37.0129C222.57 36.9841 222.032 37.0152 221.503 37.1056C221.735 36.9388 222 36.8222 222.28 36.7633C222.557 36.6931 222.844 36.669 223.128 36.692C223.416 36.7085 223.699 36.7761 223.963 36.8917C224.228 36.9994 224.47 37.1567 224.676 37.3552" fill="#6F353B"/>
<path d="M222.143 38.9392C222.172 38.8449 222.227 38.7611 222.304 38.6988C222.38 38.6365 222.473 38.5986 222.571 38.5898C222.749 38.6016 222.918 38.6749 223.048 38.7972C223.178 38.9194 223.262 39.0831 223.284 39.2601C223.356 39.6452 223.156 39.9732 222.835 39.9732C222.657 39.9601 222.49 39.8864 222.36 39.7644C222.23 39.6424 222.146 39.4794 222.122 39.3029C222.099 39.1804 222.099 39.0547 222.122 38.9321" fill="#231F20"/>
<path d="M227.418 39.1033C227.456 39.0072 227.523 38.9253 227.61 38.8691C227.697 38.8129 227.799 38.7851 227.902 38.7895C228.086 38.8069 228.257 38.8876 228.387 39.0178C228.517 39.1479 228.598 39.3194 228.616 39.5026C228.634 39.5844 228.633 39.6694 228.614 39.751C228.595 39.8327 228.558 39.9089 228.505 39.9741C228.452 40.0392 228.385 40.0916 228.309 40.1273C228.233 40.1629 228.15 40.181 228.066 40.18C227.883 40.1639 227.711 40.0837 227.58 39.9533C227.45 39.8228 227.369 39.6507 227.353 39.4669C227.353 39.4669 227.353 39.4669 227.353 39.417C227.357 39.3096 227.379 39.2036 227.418 39.1033Z" fill="#231F20"/>
<path d="M226.9 38.9512L227.67 39.1081L227.777 38.8086L226.9 38.9512Z" fill="#231F20"/>
<path d="M221.667 38.761L222.437 38.982L222.559 38.5898L221.667 38.761Z" fill="#231F20"/>
<path d="M227.741 44.0012C227.634 43.659 226.451 43.8729 225.952 44.0012C225.452 44.1296 225.353 43.9371 224.661 44.0012C224.275 44.0312 223.887 44.012 223.506 43.9442C223.22 43.9442 222.828 43.8372 223.071 44.044C223.313 44.2508 223.584 44.6287 225.01 44.6644C225.785 44.6958 226.554 44.5158 227.235 44.1439C227.235 44.1439 227.848 44.3435 227.741 44.0012Z" fill="#DF7A73"/>
</svg>
